#!OML:ASF \\sashay\E\basketball\basketball\Project 1\Capture day 1\Session 1\Subject.ASF
:FULLY-SPECIFIED
:DEGREES
285
root -34.7663 15.3722 -1.11069 -181.152 61.1474 -181.84
lowerback 10.9141 3.83524 -3.05882
upperback 2.5305 4.82986 -1.86143
thorax -3.54393 2.48132 -0.893114
lowerneck 16.236 -13.9807 -28.8224
upperneck -7.25051 -22.9238 30.7799
head 2.61958 -12.6249 14.0165
rclavicle 2.72335e-014 -2.50469e-014
rhumerus 72.4368 1.90203 -71.7868
rradius 80.7313
rwrist -4.4892
rhand -40.5195 83.5304
rfingers 7.12502
rthumb -13.4686 53.9859
lclavicle 2.72335e-014 -2.50469e-014
lhumerus 88.6494 2.69775 54.1593
lradius 69.4205
lwrist 29.3038
lhand -21.8255 20.1637
lfingers 7.12502
lthumb 4.57723 50.0942
rfemur -15.3484 -5.74677 9.3512
rtibia 54.3139
rfoot -15.0457 -20.2123
rtoes -27.692
lfemur -14.4848 2.8421 -18.1754
ltibia 44.2312
lfoot -21.8617 -7.17023
ltoes -17.7407
286
root -34.7833 15.3681 -1.11046 -181.464 60.7377 -182.503
lowerback 10.8047 3.9643 -3.4339
upperback 2.70556 4.98043 -1.91013
thorax -3.32876 2.56151 -0.740941
lowerneck 15.9386 -14.0436 -29.2258
upperneck -7.76921 -22.9637 31.5815
head 2.72297 -12.6583 14.3392
rclavicle -1.48095e-014 1.39149e-014
rhumerus 72.4384 2.23746 -71.6603
rradius 81.103
rwrist -4.5674
rhand -40.6965 83.7782
rfingers 7.12502
rthumb -13.6391 54.245
lclavicle -1.48095e-014 1.39149e-014
lhumerus 88.4191 2.9342 54.4068
lradius 70.0161
lwrist 29.9217
lhand -21.7174 20.6803
lfingers 7.12502
lthumb 4.68162 50.6086
rfemur -15.5979 -6.26157 9.5182
rtibia 55.7473
rfoot -15.5101 -19.8735
rtoes -27.7087
lfemur -14.83 2.19698 -18.6233
ltibia 43.9816
lfoot -20.8296 -8.21166
ltoes -9.3562
287
root -34.7962 15.3591 -1.11093 -181.825 60.2242 -183.094
lowerback 10.847 4.11713 -3.92576
upperback 2.91057 5.14902 -1.79014
thorax -3.19283 2.64978 -0.363133
lowerneck 15.3904 -13.9889 -30.0512
upperneck -8.18703 -22.8814 32.623
head 2.95838 -12.6175 14.8179
rclavicle 6.34123e-014 -3.57812e-014
rhumerus 72.4154 2.4996 -71.3292
rradius 81.2262
rwrist -4.46938
rhand -40.3176 84.327
rfingers 7.12502
rthumb -13.2739 54.7697
lclavicle 6.34123e-014 -3.57812e-014
lhumerus 88.2013 3.08348 55.1114
lradius 70.7595
lwrist 30.7572
lhand -21.1604 21.8488
lfingers 7.12502
lthumb 5.21949 51.7645
rfemur -15.7384 -6.70277 9.68905
rtibia 56.9621
rfoot -14.6417 -20.2308
rtoes -30.8533
lfemur -15.0407 1.67128 -19.0407
ltibia 43.8664
lfoot -20.355 -8.4112
ltoes -4.6302
288
root -34.8118 15.3603 -1.11326 -181.882 59.5811 -183.241
lowerback 10.8475 4.07969 -3.87121
upperback 3.17456 5.13089 -1.87713
thorax -2.9039 2.64433 -0.466959
lowerneck 14.9501 -14.0964 -30.213
upperneck -8.29552 -22.9471 33.1546
head 3.13983 -12.6401 14.9794
rclavicle -4.41302e-014 -3.57812e-015
rhumerus 72.4895 2.85167 -71.3906
rradius 81.2971
rwrist -3.8663
rhand -40.643 83.9896
rfingers 7.12502
rthumb -13.5875 54.453
lclavicle -4.41302e-014 -3.57812e-015
lhumerus 87.9545 3.3445 55.1025
lradius 71.241
lwrist 30.8481
lhand -21.1468 21.7382
lfingers 7.12502
lthumb 5.23264 51.6536
rfemur -15.5746 -7.39356 10.0596
rtibia 58.2269
rfoot -15.7836 -19.3269
rtoes -28.3214
lfemur -15.2077 1.16541 -19.2022
ltibia 43.7726
lfoot -20.1777 -8.4516
ltoes -4.87479
289
root -34.8326 15.351 -1.11701 -181.978 58.8061 -183.464
lowerback 10.9339 4.043 -3.93153
upperback 3.2935 5.08504 -1.88345
thorax -2.83003 2.62435 -0.434712
lowerneck 14.9063 -14.2837 -30.1717
upperneck -8.36178 -23.1847 33.2671
head 3.22167 -12.7612 14.9491
rclavicle -5.65542e-014 1.66979e-014
rhumerus 72.3217 3.27696 -71.286
rradius 81.5062
rwrist -3.59465
rhand -40.9139 83.4544
rfingers 7.12502
rthumb -13.8486 53.9354
lclavicle -5.65542e-014 1.66979e-014
lhumerus 87.4222 3.44758 55.1065
lradius 71.6301
lwrist 30.5569
lhand -21.387 21.1964
lfingers 7.12502
lthumb 5.00067 51.1174
rfemur -15.1538 -8.19192 10.3134
rtibia 59.2493
rfoot -17.545 -17.6673
rtoes -22.5911
lfemur -15.5572 0.324098 -19.4548
ltibia 43.9044
lfoot -20.186 -8.47947
ltoes -4.27118
290
root -34.8462 15.3509 -1.12384 -182.336 58.167 -184.051
lowerback 11.1054 4.07071 -4.21772
upperback 3.34019 5.08948 -1.92945
thorax -2.89401 2.63077 -0.336598
lowerneck 14.9952 -14.3835 -30.2171
upperneck -8.8057 -23.2892 33.5907
head 3.18407 -12.8363 15.072
rclavicle -1.78906e-015 8.34896e-015
rhumerus 72.0728 3.78844 -71.1718
rradius 81.8292
rwrist -3.62738
rhand -40.9406 83.2211
rfingers 7.12502
rthumb -13.8743 53.7039
lclavicle -1.78906e-015 8.34896e-015
lhumerus 86.7813 3.48308 55.1337
lradius 72.1168
lwrist 30.2311
lhand -21.7522 21.1182
lfingers 7.12502
lthumb 4.64805 51.0472
rfemur -15.3779 -8.96992 10.4696
rtibia 60.2908
rfoot -15.5728 -18.3681
rtoes -29.3555
lfemur -15.8735 -0.404166 -19.9318
ltibia 44.0152
lfoot -20.4889 -8.32137
ltoes -4.36199
291
root -34.8608 15.3247 -1.11581 -182.335 57.8776 -184.265
lowerback 11.0654 4.18437 -4.33094
upperback 3.49852 5.24759 -1.98369
thorax -2.71507 2.71169 -0.341543
lowerneck 14.9373 -14.5244 -30.1786
upperneck -9.10829 -23.4211 33.8361
head 3.19457 -12.911 15.1234
rclavicle 4.06515e-014 1.90833e-014
rhumerus 71.9704 4.26131 -71.0868
rradius 82.2314
rwrist -3.8694
rhand -40.9745 83.2704
rfingers 7.12502
rthumb -13.9071 53.7554
lclavicle 4.06515e-014 1.90833e-014
lhumerus 86.2697 3.58061 54.9924
lradius 72.5575
lwrist 29.4626
lhand -22.4936 20.8589
lfingers 7.12502
lthumb 3.93216 50.8024
rfemur -15.5524 -8.82668 10.8513
rtibia 61.095
rfoot -13.801 -18.5726
rtoes -33.9706
lfemur -16.2719 -0.622426 -20.0978
ltibia 44.1127
lfoot -20.6757 -8.16968
ltoes -5.88498
292
root -34.882 15.3095 -1.10614 -182.056 57.5475 -184.211
lowerback 11.0648 4.29533 -4.3085
upperback 3.57977 5.4065 -2.00509
thorax -2.63008 2.79193 -0.39402
lowerneck 14.6707 -14.6868 -30.1832
upperneck -8.9827 -23.6108 33.9537
head 3.35922 -12.989 15.0809
rclavicle 1.14301e-014 -3.49861e-014
rhumerus 71.7625 4.69747 -70.9088
rradius 82.6881
rwrist -4.45765
rhand -40.9337 83.3705
rfingers 7.12502
rthumb -13.8677 53.8529
lclavicle 1.14301e-014 -3.49861e-014
lhumerus 85.701 3.64947 54.8946
lradius 73.1371
lwrist 29.1079
lhand -22.8767 20.8348
lfingers 7.12502
lthumb 3.56215 50.7848
rfemur -15.3079 -9.35061 11.476
rtibia 62.2633
rfoot -14.5956 -17.6599
rtoes -33.2316
lfemur -16.709 -1.04203 -20.0574
ltibia 44.1847
lfoot -20.3917 -8.66961
ltoes -2.95325
293
root -34.8886 15.3212 -1.10616 -181.918 57.1208 -184.395
lowerback 11.09 4.37493 -4.36452
upperback 3.5579 5.50404 -2.09634
thorax -2.66501 2.84248 -0.474514
lowerneck 14.8843 -14.782 -30.1362
upperneck -9.39714 -23.72 34.3911
head 3.32289 -13.0856 15.2491
rclavicle 2.28602e-015 2.82274e-014
rhumerus 71.432 5.13873 -70.8454
rradius 82.9796
rwrist -4.70338
rhand -40.8863 83.2577
rfingers 7.12502
rthumb -13.822 53.737
lclavicle 2.28602e-015 2.82274e-014
lhumerus 85.0822 3.43256 54.9946
lradius 73.724
lwrist 28.9578
lhand -22.8982 20.8006
lfingers 7.12502
lthumb 3.54143 50.7509
rfemur -15.9509 -9.74753 11.9996
rtibia 63.1661
rfoot -13.1789 -17.657
rtoes -35.9396
lfemur -17.0629 -1.71032 -20.1207
ltibia 44.2274
lfoot -19.8132 -9.90205
ltoes 5.63062
294
root -34.8986 15.3069 -1.09569 -181.715 56.8835 -184.492
lowerback 11.1121 4.56166 -4.41402
upperback 3.49485 5.74007 -2.22169
thorax -2.74049 2.96196 -0.615681
lowerneck 15.2381 -14.9649 -29.7374
upperneck -9.84249 -23.8963 34.5793
head 3.18233 -13.2205 15.268
rclavicle 9.0944e-014 -3.37934e-014
rhumerus 70.9918 5.53145 -71.0639
rradius 83.1092
rwrist -4.59141
rhand -40.5332 83.2682
rfingers 7.12502
rthumb -13.4817 53.7246
lclavicle 9.0944e-014 -3.37934e-014
lhumerus 84.5072 2.64099 55.2002
lradius 74.2429
lwrist 28.3866
lhand -23.1287 20.8362
lfingers 7.12502
lthumb 3.31877 50.7901
rfemur -15.9683 -9.68207 12.5049
rtibia 63.978
rfoot -13.3688 -17.0956
rtoes -35.2534
lfemur -17.5674 -1.96549 -20.1807
ltibia 44.3977
lfoot -19.7247 -9.96005
ltoes 6.54908
295
root -34.9065 15.3049 -1.08656 -181.675 56.5364 -184.605
lowerback 11.1731 4.66558 -4.55645
upperback 3.62999 5.87477 -2.16392
thorax -2.65493 3.03032 -0.495244
lowerneck 15.3806 -15.1184 -29.8069
upperneck -10.4203 -24.0721 34.9255
head 3.13461 -13.3404 15.391
rclavicle -5.62561e-014 2.78299e-014
rhumerus 70.931 6.19729 -71.1056
rradius 82.9509
rwrist -4.52601
rhand -40.0278 83.9805
rfingers 7.12502
rthumb -12.9945 54.4052
lclavicle -5.62561e-014 2.78299e-014
lhumerus 84.0332 2.86518 55.3452
lradius 74.888
lwrist 28.5534
lhand -23.2261 21.6255
lfingers 7.12502
lthumb 3.22472 51.5808
rfemur -15.5977 -9.84318 13.0129
rtibia 64.6362
rfoot -13.6125 -16.5609
rtoes -33.9613
lfemur -17.9729 -2.02299 -20.3412
ltibia 44.6205
lfoot -20.0488 -8.21389
ltoes -1.44617
296
root -34.9145 15.3004 -1.07924 -181.85 55.9993 -184.907
lowerback 11.265 4.66673 -4.69458
upperback 3.85793 5.8839 -2.16364
thorax -2.47909 3.03856 -0.415898
lowerneck 15.6104 -15.2886 -29.7433
upperneck -11.1219 -24.2461 35.0023
head 2.96683 -13.4548 15.4041
rclavicle 1.59525e-013 -5.12864e-014
rhumerus 71.0156 6.78268 -70.8672
rradius 82.8705
rwrist -4.45812
rhand -40.2079 84.6394
rfingers 7.12502
rthumb -13.1682 55.0752
lclavicle 1.59525e-013 -5.12864e-014
lhumerus 83.5901 3.35418 55.3539
lradius 75.5499
lwrist 28.8105
lhand -23.0593 22.3089
lfingers 7.12502
lthumb 3.3858 52.2617
rfemur -15.3937 -10.0447 13.3548
rtibia 65.1065
rfoot -13.4151 -16.2538
rtoes -33.6379
lfemur -18.3657 -2.32609 -20.5876
ltibia 44.9753
lfoot -19.7279 -5.90734
ltoes -5.6664
297
root -34.9246 15.2888 -1.06898 -181.843 55.5139 -185.143
lowerback 11.3425 4.66465 -4.88854
upperback 3.92675 5.8647 -2.10141
thorax -2.47306 3.0296 -0.246133
lowerneck 15.4067 -15.2028 -29.9756
upperneck -11.1867 -24.1125 35.3506
head 3.04107 -13.3876 15.5867
rclavicle 6.62947e-014 -2.40529e-014
rhumerus 70.8479 7.4467 -70.4336
rradius 83.404
rwrist -4.47253
rhand -40.9433 84.5237
rfingers 7.12502
rthumb -13.877 55.0067
lclavicle 6.62947e-014 -2.40529e-014
lhumerus 82.7529 4.08203 55.1672
lradius 76.3006
lwrist 29.3345
lhand -22.8642 22.6217
lfingers 7.12502
lthumb 3.57421 52.5715
rfemur -15.3758 -10.2897 13.7453
rtibia 65.5785
rfoot -13.2581 -16.1042
rtoes -33.8601
lfemur -18.8777 -2.55478 -20.7328
ltibia 45.2816
lfoot -20.9599 -9.16955
ltoes -5.71841
298
root -34.9326 15.281 -1.06048 -181.661 55.0444 -185.198
lowerback 11.4657 4.66925 -4.94929
upperback 3.93663 5.85859 -2.03999
thorax -2.54158 3.02718 -0.159269
lowerneck 15.3022 -15.1783 -30.3298
upperneck -11.1909 -24.136 35.7172
head 3.18809 -13.4059 15.7623
rclavicle 5.29761e-014 -1.98785e-014
rhumerus 70.5315 8.07849 -70.1002
rradius 84.0451
rwrist -4.45541
rhand -41.2689 83.6162
rfingers 7.12502
rthumb -14.1907 54.1209
lclavicle 5.29761e-014 -1.98785e-014
lhumerus 81.8699 4.46721 55.1262
lradius 77.05
lwrist 29.5192
lhand -22.7299 22.8444
lfingers 7.12502
lthumb 3.70394 52.7919
rfemur -15.4047 -10.5225 14.2648
rtibia 65.9937
rfoot -12.5913 -16.0887
rtoes -33.9418
lfemur -19.343 -2.77177 -20.7629
ltibia 45.472
lfoot -21.56 -10.0746
ltoes -8.36617
299
root -34.9395 15.275 -1.05134 -181.698 54.5517 -185.475
lowerback 11.5573 4.68747 -5.00643
upperback 4.06655 5.88909 -2.1329
thorax -2.45108 3.04673 -0.229064
lowerneck 14.9881 -15.3878 -30.291
upperneck -11.1957 -24.3504 35.9132
head 3.34661 -13.4966 15.7253
rclavicle 1.25533e-013 -4.41302e-014
rhumerus 70.3001 8.46457 -69.8862
rradius 84.5551
rwrist -4.36272
rhand -40.6458 81.25
rfingers 7.12502
rthumb -13.5902 51.7136
lclavicle 1.25533e-013 -4.41302e-014
lhumerus 81.3459 4.30958 55.2535
lradius 77.6577
lwrist 29.0976
lhand -22.8657 22.9586
lfingers 7.12502
lthumb 3.57275 52.9084
rfemur -15.3803 -10.7818 14.6197
rtibia 66.3768
rfoot -11.6261 -16.1709
rtoes -34.0454
lfemur -19.7085 -3.25563 -20.9395
ltibia 45.5802
lfoot -21.8669 -9.83624
ltoes -10.6549
